<svg width="100" height="32" viewBox="0 0 100 32" fill="none" xmlns="http://www.w3.org/2000/svg">
<rect width="100" height="32" fill="#D9D9D9"/>
<path d="M92 22.054C92 23.068 91.8457 23.9938 91.5371 24.8315C91.2505 25.6471 90.7214 26.3525 89.9499 26.9477C89.2004 27.5209 88.1533 27.9728 86.8087 28.3034C85.486 28.6341 83.7997 28.7994 81.7496 28.7994C79.6995 28.7994 78.0021 28.6341 76.6574 28.3034C75.3127 27.9728 74.2546 27.5209 73.4831 26.9477C72.7336 26.3525 72.2046 25.6471 71.8959 24.8315C71.6094 23.9938 71.4661 23.068 71.4661 22.054V10.7785C71.4661 9.76449 71.6094 8.84966 71.8959 8.03404C72.2046 7.19637 72.7336 6.47994 73.4831 5.88476C74.2546 5.28957 75.3127 4.82665 76.6574 4.49599C78.0021 4.16533 79.6995 4 81.7496 4C83.7997 4 85.486 4.16533 86.8087 4.49599C88.1533 4.82665 89.2004 5.28957 89.9499 5.88476C90.7214 6.47994 91.2505 7.19637 91.5371 8.03404C91.8457 8.84966 92 9.76449 92 10.7785V22.054ZM78.972 20.8636C78.972 21.3045 79.1374 21.6792 79.468 21.9878C79.7987 22.2744 80.5592 22.4177 81.7496 22.4177C82.9399 22.4177 83.7005 22.2744 84.0311 21.9878C84.3618 21.6792 84.5271 21.3045 84.5271 20.8636V11.9689C84.5271 11.55 84.3618 11.1973 84.0311 10.9108C83.7005 10.6022 82.9399 10.4478 81.7496 10.4478C80.5592 10.4478 79.7987 10.6022 79.468 10.9108C79.1374 11.1973 78.972 11.55 78.972 11.9689V20.8636Z" fill="black"/>
<path d="M68.5891 28.3034H58.1733C55.4178 28.3034 53.3678 27.7523 52.0231 26.6501C50.7004 25.5479 50.0391 23.8506 50.0391 21.558V11.2414C50.0391 8.94886 50.7004 7.25148 52.0231 6.14928C53.3678 5.04709 55.4178 4.49599 58.1733 4.49599H66.4398C66.8586 4.49599 67.1562 4.59518 67.3326 4.79358C67.531 4.96993 67.6302 5.26752 67.6302 5.68636V9.68733C67.6302 10.1062 67.531 10.4148 67.3326 10.6132C67.1562 10.7895 66.8586 10.8777 66.4398 10.8777H59.5621C58.8787 10.8777 58.3717 11.021 58.0411 11.3076C57.7104 11.5721 57.5451 11.9799 57.5451 12.531V20.4337C57.5451 20.9848 57.6663 21.3927 57.9088 21.6572C58.1733 21.9217 58.5591 22.054 59.0661 22.054H62.2735V16.8957C62.2735 16.4769 62.3617 16.1793 62.538 16.0029C62.7364 15.8045 63.045 15.7053 63.4639 15.7053H68.5891C69.0079 15.7053 69.3055 15.8045 69.4819 16.0029C69.6803 16.1793 69.7795 16.4769 69.7795 16.8957V27.1131C69.7795 27.5319 69.6803 27.8405 69.4819 28.0389C69.3055 28.2153 69.0079 28.3034 68.5891 28.3034Z" fill="black"/>
<path d="M48.1774 22.054C48.1774 23.068 48.0231 23.9938 47.7144 24.8315C47.4279 25.6471 46.8988 26.3525 46.1273 26.9477C45.3778 27.5209 44.3307 27.9728 42.986 28.3034C41.6634 28.6341 39.977 28.7994 37.9269 28.7994C35.8769 28.7994 34.1795 28.6341 32.8348 28.3034C31.4901 27.9728 30.432 27.5209 29.6605 26.9477C28.911 26.3525 28.3819 25.6471 28.0733 24.8315C27.7867 23.9938 27.6434 23.068 27.6434 22.054V10.7785C27.6434 9.76449 27.7867 8.84966 28.0733 8.03404C28.3819 7.19637 28.911 6.47994 29.6605 5.88476C30.432 5.28957 31.4901 4.82665 32.8348 4.49599C34.1795 4.16533 35.8769 4 37.9269 4C39.977 4 41.6634 4.16533 42.986 4.49599C44.3307 4.82665 45.3778 5.28957 46.1273 5.88476C46.8988 6.47994 47.4279 7.19637 47.7144 8.03404C48.0231 8.84966 48.1774 9.76449 48.1774 10.7785V22.054ZM35.1494 20.8636C35.1494 21.3045 35.3147 21.6792 35.6454 21.9878C35.9761 22.2744 36.7366 22.4177 37.9269 22.4177C39.1173 22.4177 39.8778 22.2744 40.2085 21.9878C40.5391 21.6792 40.7045 21.3045 40.7045 20.8636V11.9689C40.7045 11.55 40.5391 11.1973 40.2085 10.9108C39.8778 10.6022 39.1173 10.4478 37.9269 10.4478C36.7366 10.4478 35.9761 10.6022 35.6454 10.9108C35.3147 11.1973 35.1494 11.55 35.1494 11.9689V20.8636Z" fill="black"/>
<path d="M25.0209 28.3034H8.19037C7.77154 28.3034 7.46292 28.2153 7.26453 28.0389C7.08818 27.8405 7 27.5319 7 27.1131V5.68636C7 5.26752 7.08818 4.96993 7.26453 4.79358C7.46292 4.59518 7.77154 4.49599 8.19037 4.49599H13.3156C13.7344 4.49599 14.032 4.59518 14.2084 4.79358C14.4068 4.96993 14.506 5.26752 14.506 5.68636V22.054H19.036V16.6973C19.036 16.2785 19.1242 15.9809 19.3005 15.8045C19.4989 15.6061 19.8075 15.5069 20.2264 15.5069H25.0209C25.4397 15.5069 25.7373 15.6061 25.9137 15.8045C26.1121 15.9809 26.2113 16.2785 26.2113 16.6973V27.1131C26.2113 27.5319 26.1121 27.8405 25.9137 28.0389C25.7373 28.2153 25.4397 28.3034 25.0209 28.3034Z" fill="black"/>
</svg>
